<?xml version="1.0" standalone="no"?>
<!DOCTYPE svg PUBLIC "-//W3C//DTD SVG 20010904//EN"
 "http://www.w3.org/TR/2001/REC-SVG-20010904/DTD/svg10.dtd">
<svg version="1.0" xmlns="http://www.w3.org/2000/svg"
 width="1502.000000pt" height="1502.000000pt" viewBox="0 0 1502.000000 1502.000000"
 preserveAspectRatio="xMidYMid meet">
<metadata>
Created by potrace 1.11, written by Peter Selinger 2001-2013
</metadata>
<g transform="translate(0.000000,1502.000000) scale(0.100000,-0.100000)"
fill="#000000" stroke="none">
<path d="M6620 7890 l0 -2640 1760 0 1760 0 0 590 0 590 -1030 0 -1030 0 0
2050 0 2050 -730 0 -730 0 0 -2640z"/>
<path d="M510 7880 l0 -2630 670 0 670 0 2 2039 3 2040 304 -687 c168 -378
318 -716 334 -751 21 -46 31 -61 37 -50 15 27 560 1448 560 1459 0 7 -135 281
-301 611 l-301 599 -989 0 -989 0 0 -2630z"/>
<path d="M3957 10443 c-14 -38 -113 -291 -220 -563 -638 -1620 -970 -2467
-974 -2485 -2 -11 125 -378 282 -815 158 -437 292 -808 298 -824 9 -27 93 178
958 2345 522 1306 951 2382 955 2392 5 16 -30 17 -634 17 l-640 0 -25 -67z"/>
<path d="M5679 10483 c-11 -29 -66 -168 -322 -818 -85 -214 -272 -687 -416
-1051 l-261 -661 0 -1351 0 -1352 670 0 670 0 0 2630 0 2630 -165 0 -165 0
-11 -27z"/>
<path d="M10750 9921 l0 -590 898 -4 c882 -3 899 -4 997 -25 274 -61 395 -194
395 -433 0 -241 -140 -355 -472 -385 l-78 -7 0 -602 0 -602 46 -7 c25 -3 76
-22 113 -41 171 -90 306 -271 363 -485 21 -83 22 -102 27 -785 l6 -700 698 -3
698 -2 -4 737 c-3 608 -7 756 -20 843 -58 384 -139 551 -367 755 -78 70 -216
176 -313 240 l-57 38 107 59 c292 161 499 334 631 524 72 104 148 308 176 474
24 136 32 348 17 449 -23 158 -97 331 -201 472 -71 94 -225 240 -324 304 -225
147 -491 242 -841 300 -337 56 -389 58 -1482 62 l-1013 4 0 -590z"/>
<path d="M10750 7095 l0 -1845 683 2 682 3 0 1840 0 1840 -682 3 -683 2 0
-1845z"/>
<path d="M2360 4619 c-206 -35 -339 -213 -340 -454 0 -246 141 -413 378 -446
134 -20 269 12 390 91 l52 35 0 167 0 168 -185 0 -185 0 0 -55 0 -55 130 0
130 0 0 -83 0 -84 -47 -26 c-163 -88 -367 -70 -464 40 -61 70 -74 114 -74 248
0 111 2 125 29 183 52 113 150 172 285 172 120 0 202 -43 242 -127 12 -27 24
-50 25 -52 2 -2 26 2 54 9 57 14 57 13 17 100 -65 138 -232 203 -437 169z"/>
<path d="M5115 4625 c-5 -2 -22 -6 -38 -9 -33 -8 -102 -68 -123 -107 -31 -61
-13 -155 46 -229 16 -21 30 -40 30 -43 0 -3 -19 -16 -42 -30 -58 -34 -114 -90
-139 -139 -17 -33 -20 -55 -17 -114 3 -61 8 -79 33 -116 70 -98 172 -141 291
-121 74 13 120 34 171 78 l38 33 58 -54 c32 -30 64 -54 72 -54 7 0 27 16 44
35 l31 36 -66 61 c-42 40 -64 67 -60 77 2 9 16 43 30 76 13 33 27 72 31 86 6
24 4 27 -32 33 -21 4 -45 9 -54 12 -11 3 -20 -10 -33 -51 -9 -30 -20 -57 -25
-59 -8 -5 -147 162 -157 189 -4 8 -2 15 4 15 22 0 113 82 132 120 24 47 27
128 6 169 -40 76 -158 130 -231 106z m95 -120 c20 -10 33 -28 41 -53 15 -50
-5 -90 -64 -133 l-42 -31 -47 52 c-40 43 -48 58 -48 90 0 73 86 113 160 75z
m-16 -465 c53 -66 96 -123 96 -128 0 -15 -44 -50 -90 -71 -88 -40 -181 -20
-226 49 -56 84 -35 169 58 234 29 20 55 36 59 36 4 0 50 -54 103 -120z"/>
<path d="M8120 4619 c-206 -35 -339 -213 -340 -454 0 -246 141 -413 378 -446
134 -20 269 12 390 91 l52 35 0 167 0 168 -185 0 -185 0 0 -55 0 -55 130 0
130 0 0 -83 0 -84 -47 -26 c-163 -88 -367 -70 -464 40 -61 70 -74 114 -74 248
0 111 2 125 29 183 52 113 150 172 285 172 120 0 202 -43 242 -127 12 -27 24
-50 25 -52 2 -2 26 2 54 9 57 14 57 13 17 100 -65 138 -232 203 -437 169z"/>
<path d="M12173 4619 c-145 -28 -258 -132 -303 -277 -59 -189 -19 -390 101
-511 193 -192 546 -141 668 97 71 139 68 358 -6 494 -82 151 -275 234 -460
197z m202 -116 c142 -48 228 -231 195 -412 -32 -179 -154 -280 -324 -269 -170
11 -275 129 -284 318 -5 103 16 196 56 255 30 44 107 100 156 114 51 15 149
12 201 -6z"/>
<path d="M500 4170 l0 -450 280 0 280 0 0 55 0 55 -220 0 -220 0 0 395 0 395
-60 0 -60 0 0 -450z"/>
<path d="M1210 4170 l0 -450 330 0 330 0 0 55 0 55 -275 0 -275 0 0 150 0 150
250 0 250 0 0 55 0 55 -250 0 -250 0 0 135 0 135 265 0 265 0 0 55 0 55 -320
0 -320 0 0 -450z"/>
<path d="M3277 4613 c-7 -12 -347 -883 -347 -889 0 -3 27 -4 61 -2 l61 3 50
138 51 137 186 0 186 0 55 -140 54 -140 67 0 68 0 -39 93 c-21 50 -106 253
-187 449 l-148 358 -57 0 c-31 0 -59 -3 -61 -7z m79 -165 c9 -29 41 -115 70
-191 30 -77 54 -141 54 -143 0 -2 -65 -4 -144 -4 l-144 0 44 113 c25 61 56
149 71 195 14 45 27 82 28 82 2 0 11 -24 21 -52z"/>
<path d="M3860 4170 l0 -450 280 0 280 0 0 55 0 55 -220 0 -220 0 0 395 0 395
-60 0 -60 0 0 -450z"/>
<path d="M6060 4171 l0 -451 55 0 55 0 0 200 0 200 105 0 c165 0 175 -8 333
-256 l89 -139 71 -3 c40 -2 72 -1 72 2 0 10 -164 263 -198 305 -19 23 -52 56
-73 71 -40 28 -41 40 -5 40 37 0 120 46 153 83 40 46 57 105 50 180 -6 65 -42
135 -85 165 -59 41 -89 45 -359 50 l-263 4 0 -451z m526 315 c88 -53 84 -183
-8 -233 -28 -15 -63 -19 -220 -21 l-188 -4 0 142 0 142 193 -4 c167 -3 196 -5
223 -22z"/>
<path d="M6970 4170 l0 -450 330 0 330 0 0 55 0 55 -275 0 -275 0 0 150 0 150
250 0 250 0 0 55 0 55 -250 0 -250 0 0 135 0 135 265 0 265 0 0 55 0 55 -320
0 -320 0 0 -450z"/>
<path d="M8782 4288 c5 -365 9 -399 68 -470 66 -80 214 -122 355 -100 155 24
237 101 264 247 6 34 11 184 11 357 l0 298 -55 0 -55 0 0 -262 c-1 -390 -16
-465 -103 -510 -58 -30 -181 -37 -242 -14 -52 20 -99 70 -116 123 -7 24 -13
151 -16 351 l-5 312 -55 0 -55 0 4 -332z"/>
<path d="M9680 4170 l0 -450 280 0 280 0 0 55 0 55 -220 0 -220 0 0 395 0 395
-60 0 -60 0 0 -450z"/>
<path d="M10637 4613 c-7 -12 -347 -883 -347 -889 0 -3 27 -4 61 -2 l61 3 50
138 51 137 186 0 186 0 55 -140 54 -140 67 0 68 0 -39 93 c-21 50 -106 253
-187 449 l-148 358 -57 0 c-31 0 -59 -3 -61 -7z m79 -165 c9 -29 41 -115 70
-191 30 -77 54 -141 54 -143 0 -2 -65 -4 -144 -4 l-144 0 44 113 c25 61 56
149 71 195 14 45 27 82 28 82 2 0 11 -24 21 -52z"/>
<path d="M11060 4565 l0 -55 150 0 150 0 0 -395 0 -395 55 0 55 0 0 395 0 395
150 0 150 0 0 55 0 55 -355 0 -355 0 0 -55z"/>
<path d="M12850 4171 l0 -451 55 0 55 0 0 200 0 200 105 0 c165 0 175 -8 333
-256 l89 -139 71 -3 c40 -2 72 -1 72 2 0 10 -164 263 -198 305 -19 23 -52 56
-73 71 -40 28 -41 40 -5 40 37 0 120 46 153 83 40 46 57 105 50 180 -6 65 -42
135 -85 165 -59 41 -89 45 -359 50 l-263 4 0 -451z m526 315 c88 -53 84 -183
-8 -233 -28 -15 -63 -19 -220 -21 l-188 -4 0 142 0 142 193 -4 c167 -3 196 -5
223 -22z"/>
<path d="M13671 4583 c13 -21 90 -138 171 -260 l148 -222 0 -191 0 -190 55 0
55 0 0 188 0 187 76 110 c42 61 123 179 181 263 l104 152 -68 -1 -68 0 -49
-77 c-27 -42 -85 -133 -129 -202 -44 -69 -83 -129 -87 -133 -4 -5 -18 9 -30
30 -13 21 -73 116 -134 210 l-111 173 -68 0 -69 0 23 -37z"/>
</g>
</svg>
